<svg width="22" height="22" fill="none" xmlns="http://www.w3.org/2000/svg"><path d="M0 5.5a2.75 2.75 0 0 1 2.75-2.75h16.5A2.75 2.75 0 0 1 22 5.5v11a2.75 2.75 0 0 1-2.75 2.75H2.75A2.75 2.75 0 0 1 0 16.5v-11Zm2.75-1.375A1.375 1.375 0 0 0 1.375 5.5v.298L11 11.573l9.625-5.775V5.5a1.375 1.375 0 0 0-1.375-1.375H2.75Zm17.875 3.277-6.473 3.884 6.473 3.983V7.402Zm-.047 9.454-7.755-4.773L11 13.178l-1.823-1.093-7.755 4.77a1.375 1.375 0 0 0 1.328 1.021h16.5a1.375 1.375 0 0 0 1.328-1.019ZM1.375 15.27l6.473-3.983-6.473-3.884v7.867Z" fill="#fff"/></svg>